<svg width="241" height="241" viewBox="0 0 241 241" fill="none" xmlns="http://www.w3.org/2000/svg">
<rect x="0.759766" y="0.525391" width="239" height="239" rx="119.5" fill="white"/>
<path d="M190.79 88.9029V149.506C190.79 152.74 188.166 155.365 184.932 155.365H95.3194C92.0854 155.365 89.4609 152.74 89.4609 149.506V88.9029C89.4609 85.665 92.0854 83.0444 95.3194 83.0444H184.932C188.166 83.0444 190.79 85.6689 190.79 88.9029Z" fill="white"/>
<path d="M184.932 155.625H95.3198C91.946 155.625 89.2012 152.88 89.2012 149.506V88.9028C89.2012 85.529 91.946 82.7842 95.3198 82.7842H184.932C188.306 82.7842 191.051 85.529 191.051 88.9028V149.506C191.047 152.884 188.306 155.625 184.932 155.625ZM95.3198 83.3044C92.2333 83.3044 89.7214 85.8163 89.7214 88.9028V149.506C89.7214 152.593 92.2333 155.105 95.3198 155.105H184.932C188.019 155.105 190.531 152.593 190.531 149.506V88.9028C190.531 85.8163 188.019 83.3044 184.932 83.3044H95.3198Z" fill="black"/>
<path d="M190.79 88.9029V92.7309H89.4609V88.9029C89.4609 85.665 92.0854 83.0444 95.3194 83.0444H184.932C188.166 83.0444 190.79 85.6689 190.79 88.9029Z" fill="black"/>
<path d="M183.282 107.744H97.0938V108.26H183.282V107.744Z" fill="black"/>
<path d="M116.378 113.882H96.5781V121.647H116.378V113.882Z" fill="white"/>
<path d="M116.572 121.841H96.3838V113.688H116.572V121.841ZM96.772 121.453H116.184V114.076H96.772V121.453Z" fill="black"/>
<path d="M138.701 113.882H118.901V121.647H138.701V113.882Z" fill="white"/>
<path d="M138.895 121.841H118.707V113.688H138.895V121.841ZM119.095 121.453H138.507V114.076H119.095V121.453Z" fill="black"/>
<path d="M161.026 113.882H141.226V121.647H161.026V113.882Z" fill="#26D07C"/>
<path d="M161.219 121.841H141.031V113.688H161.219V121.841ZM141.419 121.453H160.831V114.076H141.419V121.453Z" fill="black"/>
<path d="M183.349 113.882H163.549V121.647H183.349V113.882Z" fill="white"/>
<path d="M183.543 121.841H163.354V113.688H183.543V121.841ZM163.743 121.453H183.154V114.076H163.743V121.453Z" fill="black"/>
<path d="M116.677 125.595H96.877V133.36H116.677V125.595Z" fill="#26D07C"/>
<path d="M116.871 133.554H96.6826V125.401H116.871V133.554ZM97.0709 133.166H116.483V125.789H97.0709V133.166Z" fill="black"/>
<path d="M139 125.595H119.2V133.36H139V125.595Z" fill="#26D07C"/>
<path d="M139.194 133.554H119.006V125.401H139.194V133.554ZM119.394 133.166H138.806V125.789H119.394V133.166Z" fill="black"/>
<path d="M161.324 125.595H141.524V133.36H161.324V125.595Z" fill="white"/>
<path d="M161.518 133.554H141.33V125.401H161.518V133.554ZM141.718 133.166H161.13V125.789H141.718V133.166Z" fill="black"/>
<path d="M183.648 125.595H163.848V133.36H183.648V125.595Z" fill="white"/>
<path d="M183.842 133.554H163.653V125.401H183.842V133.554ZM164.042 133.166H183.453V125.789H164.042V133.166Z" fill="black"/>
<path d="M116.677 137.312H96.877V145.077H116.677V137.312Z" fill="white"/>
<path d="M116.871 145.271H96.6826V137.118H116.871V145.271ZM97.0709 144.882H116.483V137.506H97.0709V144.882Z" fill="black"/>
<path d="M139 137.312H119.2V145.077H139V137.312Z" fill="white"/>
<path d="M139.194 145.271H119.006V137.118H139.194V145.271ZM119.394 144.882H138.806V137.506H119.394V144.882Z" fill="black"/>
<path d="M161.324 137.312H141.524V145.077H161.324V137.312Z" fill="white"/>
<path d="M161.518 145.271H141.33V137.118H161.518V145.271ZM141.718 144.882H161.13V137.506H141.718V144.882Z" fill="black"/>
<path d="M183.648 137.312H163.848V145.077H183.648V137.312Z" fill="white"/>
<path d="M183.842 145.271H163.653V137.118H183.842V145.271ZM164.042 144.882H183.453V137.506H164.042V144.882Z" fill="black"/>
<path d="M150.154 101.846H130.354V109.611H150.154V101.846Z" fill="#26D07C"/>
<path d="M125.621 102.11L126.308 104.176C126.308 104.176 125.896 105.826 128.098 109.269C128.098 109.269 128.719 109.89 129.13 109.751C129.13 109.751 130.093 110.162 130.78 110.026C130.78 110.026 131.743 110.853 132.159 110.714C132.159 110.714 133.122 111.676 133.261 110.714C133.261 110.714 132.71 109.064 131.883 108.237L130.233 105.76C130.233 105.76 132.71 107.274 133.537 106.587L131.747 104.937C131.747 104.937 130.509 103.834 129.546 103.698L125.279 87.3146L127.48 84.2864L121.836 79.8799L118.718 85.5598C118.256 86.3984 118.237 87.4116 118.668 88.2696L125.621 102.11Z" fill="#FAFBFD"/>
<path d="M132.916 111.401C132.586 111.401 132.241 111.141 132.07 110.985C132.066 110.985 132.066 110.985 132.062 110.985C131.604 110.985 130.994 110.535 130.703 110.298C130.082 110.372 129.348 110.112 129.108 110.019C128.591 110.096 128.028 109.564 127.912 109.448L127.877 109.405C125.881 106.288 125.982 104.576 126.041 104.191L125.381 102.207L118.435 88.3784C117.965 87.4466 117.989 86.344 118.489 85.4278L121.754 79.4839L127.834 84.232L125.555 87.3651L129.752 103.469C130.742 103.702 131.868 104.692 131.918 104.739L133.93 106.594L133.704 106.785C133.095 107.293 131.876 106.874 131.022 106.474L132.089 108.074C132.94 108.939 133.487 110.566 133.51 110.636L133.53 110.694L133.522 110.756C133.464 111.176 133.258 111.327 133.099 111.377C133.037 111.393 132.978 111.401 132.916 111.401ZM132.229 110.418L132.342 110.531C132.551 110.737 132.839 110.912 132.932 110.88C132.94 110.877 132.971 110.842 132.994 110.733C132.889 110.434 132.388 109.102 131.701 108.415L131.67 108.376L129.368 104.925L130.369 105.534C131.177 106.028 132.408 106.567 133.064 106.497L131.573 105.123C131.565 105.115 130.385 104.075 129.508 103.95L129.337 103.927L129.294 103.76L124.996 87.2602L127.124 84.3368L121.917 80.272L118.948 85.684C118.528 86.4488 118.509 87.3728 118.901 88.1532L125.862 102.013L126.58 104.168L126.561 104.242C126.557 104.253 126.223 105.853 128.3 109.106C128.514 109.308 128.886 109.56 129.049 109.506L129.143 109.475L129.232 109.514C129.24 109.518 130.133 109.894 130.73 109.774L130.855 109.751L130.952 109.832C131.39 110.209 131.938 110.519 132.078 110.473L132.229 110.418Z" fill="black"/>
<path d="M120.042 81.5299L125.932 86.4023L129.127 83.044H157.899C157.899 83.044 160.636 81.988 159.215 80.0779C158.524 79.1462 156.358 76.9992 154.296 75.0891C151.501 72.4996 148.573 69.8751 146.749 69.5567C143.581 69.0055 139.729 69.1452 139.729 69.1452C139.729 69.1452 132.434 68.8696 125.963 72.7247C125.963 72.7209 121.56 79.053 120.042 81.5299Z" fill="#26D07C"/>
<path d="M140.479 70.6086C140.444 70.4999 137.87 67.8327 137.87 67.8327C137.87 67.8327 138.146 63.566 135.944 65.216L133.564 62.5527L127.846 68.1705C127.846 68.1705 131.856 77.6318 136.107 72.709L137.066 73.9474C137.066 73.9474 138.425 73.5049 139.345 72.7594C140.304 71.9869 140.479 70.6086 140.479 70.6086Z" fill="#FAFBFD"/>
<path d="M133.537 74.3902C133.39 74.3902 133.242 74.3785 133.095 74.3552C130.012 73.8738 127.702 68.5006 127.605 68.2716L127.535 68.1085L133.572 62.1763L135.983 64.8745C136.48 64.5562 136.911 64.494 137.272 64.6882C138.181 65.1773 138.157 67.1845 138.134 67.7319C140.673 70.3603 140.704 70.4573 140.724 70.5272L140.739 70.5816L140.731 70.6359C140.724 70.698 140.529 72.1267 139.501 72.9614C138.553 73.7263 137.194 74.1727 137.14 74.1922L136.965 74.2504L136.084 73.1129C135.284 73.9631 134.43 74.3902 133.537 74.3902ZM128.152 68.2327C128.56 69.1257 130.653 73.4506 133.176 73.8466C134.116 73.9942 135.036 73.5554 135.909 72.546L136.115 72.3053L137.152 73.6486C137.536 73.505 138.495 73.1206 139.178 72.5654C139.904 71.9753 140.145 70.9931 140.203 70.6786C139.904 70.3292 138.542 68.9044 137.684 68.0153L137.606 67.9338L137.614 67.8212C137.668 66.9399 137.559 65.4374 137.031 65.1502C136.818 65.0337 136.503 65.1269 136.104 65.4297L135.913 65.5733L133.553 62.9333L128.152 68.2327Z" fill="black"/>
<path d="M137.594 65.492C136.767 64.3894 135.315 65.4959 135.544 66.6296C135.773 67.7632 135.039 68.1087 135.039 68.1087C135.039 68.1087 133.611 66.9867 132.865 66.1365C132.12 65.2863 131.666 66.1443 131.666 66.1443C131.056 69.2191 128.696 68.99 128.696 68.99C124.806 67.309 127.255 63.5819 128.474 62.4444C129.336 61.6407 130.683 61.039 130.683 61.039C130.664 61.0001 130.645 60.9652 130.629 60.9264C130.513 60.6896 130.408 60.4721 130.318 60.2741C129.476 58.4184 129.662 57.902 130.082 57.1372C130.357 56.6325 132.85 55.196 134.674 56.4384C135.928 57.2886 135.536 59.0473 135.168 60.0645C135.063 60.3557 134.958 60.5847 134.896 60.7167C134.857 60.7944 134.834 60.841 134.834 60.841C137.92 62.6463 137.594 65.492 137.594 65.492Z" fill="black"/>
<path d="M150.623 79.6433L144.823 80.7032L142.482 81.2545L140.417 80.5673L136.837 81.2545L134.978 83.0443H157.278H158.171C158.171 83.0443 161.405 82.5629 158.792 79.259L154.525 75.4038L150.053 79.0532L150.623 79.6433Z" fill="#FAFBFD"/>
<path d="M158.194 83.3043H134.337L136.713 81.0176L140.432 80.3032L142.49 80.9904L144.773 80.4546L150.099 79.4802L149.668 79.0337L154.533 75.0659L158.994 79.0997C159.941 80.2993 160.267 81.301 159.957 82.0813C159.557 83.0907 158.264 83.2965 158.209 83.3043H158.194ZM135.622 82.7879H158.155C158.291 82.7646 159.215 82.5705 159.483 81.8872C159.712 81.3049 159.409 80.4546 158.605 79.4374L154.517 75.7453L150.433 79.0764L151.14 79.814L144.874 80.9593L142.467 81.5262L140.397 80.8351L136.961 81.4951L135.622 82.7879Z" fill="black"/>
<path d="M135.168 60.0611C135.064 60.3523 134.959 60.5814 134.897 60.7134C134.058 60.5736 132.288 60.3911 130.634 60.9269C130.517 60.6901 130.413 60.4726 130.323 60.2746C131.232 59.9019 133.134 59.3468 135.168 60.0611Z" fill="#FAFBFD"/>
<path d="M130.498 61.241L130.397 61.043C130.269 60.7868 130.168 60.5694 130.078 60.3792L129.966 60.1346L130.214 60.0336C131.193 59.6376 133.145 59.0786 135.246 59.8162L135.49 59.9016L135.401 60.1462C135.292 60.4452 135.188 60.682 135.122 60.8256L135.036 61.0003L134.846 60.9693C133.98 60.8256 132.287 60.6626 130.703 61.1712L130.498 61.241ZM130.672 60.4141C130.703 60.4762 130.735 60.5461 130.769 60.616C132.28 60.185 133.829 60.2937 134.745 60.4296C134.772 60.3714 134.799 60.3015 134.83 60.2239C133.149 59.7192 131.593 60.0802 130.672 60.4141Z" fill="black"/>
<path d="M199.46 183.45H41.0596V183.904H199.46V183.45Z" fill="black"/>
<path d="M69.366 175.817L68.9778 180.654H63.9346L64.3228 175.817H69.366Z" fill="#FAFBFD"/>
<path d="M69.2187 180.914H63.6553L64.0862 175.561H69.6496L69.2187 180.914ZM64.2143 180.398H68.7373L69.0828 176.077H64.5599L64.2143 180.398Z" fill="black"/>
<path d="M63.9347 179.074C63.9347 179.074 66.6756 181.155 68.9779 179.074L75.8069 182.634C76.1059 182.79 75.9972 183.248 75.6555 183.248H63.5853C63.2048 183.248 62.9253 182.887 63.0223 182.518L63.9347 179.074Z" fill="black"/>
<path d="M81.9211 175.817L82.4374 180.654H77.3943L76.874 175.817H81.9211Z" fill="#FAFBFD"/>
<path d="M82.7249 180.914H77.1615L76.5869 175.561H82.1503L82.7249 180.914ZM77.6274 180.398H82.1503L81.6883 176.077H77.1654L77.6274 180.398Z" fill="black"/>
<path d="M77.2628 179.074C77.2628 179.074 80.0038 181.155 82.306 179.074L89.135 182.634C89.434 182.79 89.3253 183.248 88.9836 183.248H76.9134C76.5329 183.248 76.2534 182.887 76.3505 182.518L77.2628 179.074Z" fill="black"/>
<path d="M74.9487 112.368L80.384 138.286L84.5265 176.461H75.9853L72.8794 143.461L64.8701 117.873L74.9487 112.368Z" fill="black"/>
<path d="M63.0528 94.1553L62.6878 89.0539C62.6878 89.0539 59.6518 87.4738 60.0168 85.288C60.3817 83.1023 61.3523 81.2814 66.213 79.0918C66.213 79.0918 73.6205 86.4993 68.0338 88.689L69.0044 93.4254L63.0528 94.1553Z" fill="#FAFBFD"/>
<path d="M62.8162 94.4466L62.4435 89.2132C61.8418 88.8715 59.4153 87.3457 59.7647 85.2454C60.1685 82.8267 61.3371 81.0059 66.1085 78.8589L66.2715 78.7852L66.3996 78.9133C66.586 79.0996 70.9692 83.5255 70.3169 86.6469C70.1112 87.6214 69.4473 88.3629 68.3369 88.8482L69.3231 93.6507L62.8162 94.4466ZM66.1512 79.4063C61.2633 81.6387 60.58 83.4828 60.2694 85.3308C59.9394 87.303 62.7774 88.8094 62.8046 88.8249L62.9327 88.8909L63.2899 93.8642L68.6941 93.2042L67.7352 88.5299L67.9371 88.4522C69.0125 88.0329 69.622 87.4079 69.8006 86.5421C70.3441 83.9681 66.8616 80.1517 66.1512 79.4063Z" fill="black"/>
<path d="M70.3555 96.2905L80.9659 101.209L95.979 96.2905V98.7481L81.0979 107.809L65.4365 101.209L70.3555 96.2905Z" fill="#FAFBFD"/>
<path d="M81.1175 108.097L64.9824 101.295L70.3012 95.9763L80.9855 100.926L96.2392 95.9297V98.8919L81.1175 108.097ZM65.8909 101.12L81.0748 107.519L95.719 98.6046V96.6479L80.9505 101.485L70.4099 96.6013L65.8909 101.12Z" fill="black"/>
<path d="M62.6888 86.6232C62.6888 86.6232 63.539 87.9587 62.6888 89.0535C62.6888 89.0535 54.431 86.9881 58.3172 81.0365C58.3172 81.0365 61.4736 75.2052 64.9988 76.0554C68.524 76.9056 69.8711 79.961 67.9804 81.1646C66.0897 82.3681 63.0537 84.0686 63.0537 84.0686L63.6594 85.4041L63.2944 85.769C63.2944 85.769 61.4736 84.6742 61.229 85.4041C60.9883 86.1379 61.4775 87.2327 62.6888 86.6232Z" fill="black"/>
<path d="M62.7858 176.461L64.8551 141.004L59.5518 119.263L72.8799 114.083L75.9858 138.674L70.9387 176.461H62.7858Z" fill="#2F2E40"/>
<path d="M86.3202 108.369L67.4947 126.022C66.5785 126.88 65.1381 126.833 64.2801 125.913L55.2886 116.25L54.6596 115.574C53.8055 114.658 53.856 113.229 54.7645 112.371C58.8642 108.528 69.4786 98.5734 73.59 94.7183C74.5062 93.8603 75.9466 93.9069 76.8046 94.8309L77.4956 95.5724L86.4289 105.166C87.2792 106.082 87.2287 107.515 86.3202 108.369Z" fill="#26D07C"/>
<path d="M77.2734 101.021L60.4404 116.692L61.0568 117.354L77.8898 101.683L77.2734 101.021Z" fill="white"/>
<path d="M69.4357 111.282L61.9199 118.279L62.5363 118.941L70.0521 111.944L69.4357 111.282Z" fill="white"/>
<path d="M78.7543 102.607L70.1787 110.591L70.7951 111.253L79.3707 103.269L78.7543 102.607Z" fill="white"/>
<path d="M80.2314 104.197L63.3984 119.868L64.0148 120.53L80.8478 104.859L80.2314 104.197Z" fill="white"/>
<path d="M81.71 105.784L64.877 121.456L65.4933 122.118L82.3263 106.446L81.71 105.784Z" fill="white"/>
<path d="M77.4956 95.5724L55.2886 116.25L54.6596 115.574C53.8055 114.658 53.856 113.229 54.7645 112.371C58.8642 108.528 69.4786 98.5734 73.59 94.7183C74.5062 93.8603 75.9466 93.9069 76.8046 94.8309L77.4956 95.5724Z" fill="black"/>
<path d="M69.6068 100.844C69.8513 101.108 69.8358 101.52 69.5757 101.764C69.3117 102.009 68.9002 101.994 68.6556 101.733C68.411 101.469 68.4265 101.058 68.6866 100.813C68.9506 100.565 69.3622 100.58 69.6068 100.844Z" fill="white"/>
<path d="M71.8314 98.7755C72.076 99.0395 72.0604 99.451 71.8003 99.6956C71.5363 99.9402 71.1248 99.9247 70.8802 99.6646C70.6356 99.4006 70.6511 98.989 70.9113 98.7444C71.1753 98.496 71.5868 98.5115 71.8314 98.7755Z" fill="white"/>
<path d="M74.0521 96.7023C74.2967 96.9663 74.2811 97.3778 74.021 97.6224C73.7609 97.867 73.3455 97.8514 73.1009 97.5913C72.8563 97.3273 72.8718 96.9158 73.132 96.6712C73.396 96.4266 73.8075 96.4422 74.0521 96.7023Z" fill="white"/>
<path d="M73.4727 115.364C73.4727 115.364 74.9985 118.529 75.9341 118.649C75.9341 118.649 76.7533 118.882 76.7533 118.063C76.7533 118.063 78.0423 118.296 77.9258 117.243C77.9258 117.243 78.8653 117.36 78.8653 116.541C78.8653 116.541 79.9213 116.424 79.6845 115.601C79.4516 114.782 78.6285 113.726 78.6285 113.726C78.6285 113.726 79.6845 114.545 80.3872 114.196C80.3872 114.196 79.568 112.437 78.1587 111.618C78.1587 111.618 76.7533 111.265 75.1111 112.204L69.835 111.501V115.605L73.4727 115.364Z" fill="#FAFBFD"/>
<path d="M76.1791 118.94C76.0432 118.94 75.9306 118.917 75.8802 118.905C74.9329 118.758 73.7022 116.421 73.3139 115.636L69.5791 115.877V111.203L75.061 111.933C76.7382 111.009 78.163 111.346 78.2251 111.362L78.26 111.37L78.2911 111.389C79.7509 112.239 80.5895 114.006 80.6244 114.083L80.7292 114.312L80.504 114.425C80.1624 114.596 79.7742 114.557 79.4286 114.444C79.6305 114.782 79.8324 115.174 79.9333 115.531C80.0343 115.893 79.9372 116.145 79.8402 116.292C79.6538 116.572 79.3238 116.7 79.1064 116.758C79.0598 117.003 78.9395 117.158 78.8346 117.251C78.6366 117.426 78.3843 117.484 78.1902 117.504C78.1591 117.779 78.0349 117.954 77.9223 118.063C77.6505 118.315 77.2506 118.354 76.9866 118.346C76.9323 118.571 76.8158 118.703 76.711 118.781C76.5402 118.905 76.3422 118.94 76.1791 118.94ZM73.6284 115.097L73.706 115.252C74.3156 116.514 75.4182 118.323 75.9656 118.389L76.0044 118.397C76.0704 118.416 76.2839 118.447 76.3965 118.362C76.4625 118.311 76.4975 118.21 76.4975 118.059V117.748L76.8042 117.803C76.94 117.826 77.3749 117.857 77.569 117.675C77.6039 117.643 77.7049 117.546 77.6738 117.267L77.6389 116.941L77.965 116.98C78.0582 116.991 78.3416 116.991 78.493 116.855C78.5706 116.785 78.6095 116.681 78.6095 116.533V116.3L78.8385 116.273C78.955 116.257 79.285 116.184 79.4131 115.993C79.4713 115.908 79.4791 115.799 79.4403 115.663C79.2229 114.903 78.4386 113.885 78.4309 113.874L77.1613 112.243L78.7919 113.513C79.0055 113.676 79.5684 114.025 80.011 114.013C79.7276 113.505 79.0443 112.433 78.0698 111.851C77.8563 111.808 76.6333 111.622 75.2473 112.418L75.1697 112.461L70.0993 111.785V115.318L73.6284 115.097Z" fill="black"/>
<path d="M72.9452 117.449V111.498L64.0818 109.297L63.4606 104.079L73.8498 94.3495C73.8498 94.3495 72.4249 91.8919 68.8687 91.3096C68.8687 91.3096 68.0922 95.1919 62.7851 92.4743L56.9965 96.3333C56.4956 96.6672 56.2161 97.2457 56.2666 97.8475L57.606 112.402C57.7225 113.668 58.662 114.705 59.9082 114.941L72.9452 117.449Z" fill="#FAFBFD"/>
<path d="M73.2017 117.764L59.858 115.198C58.507 114.938 57.4743 113.8 57.3462 112.426L56.0067 97.8709C55.9485 97.1759 56.2707 96.5043 56.8492 96.1199L62.762 92.1755L62.8979 92.2454C64.7614 93.2004 66.2367 93.4295 67.2889 92.9248C68.3604 92.4123 68.605 91.2709 68.6089 91.2592L68.6593 91.0146L68.9039 91.0535C72.5417 91.6475 74.0092 94.1166 74.0674 94.2215L74.1723 94.4001L63.7287 104.18L64.3111 109.091L73.1978 111.296V117.764H73.2017ZM62.8009 92.7734L57.1404 96.547C56.7172 96.8265 56.4843 97.3157 56.527 97.8243L57.8664 112.379C57.9712 113.521 58.8331 114.472 59.959 114.689L72.6853 117.135V111.7L63.8452 109.506L63.1891 103.982L73.5162 94.3108C73.1318 93.775 71.7574 92.1211 69.0553 91.6048C68.9117 92.0318 68.5118 92.9131 67.5257 93.3868C66.3493 93.9536 64.7614 93.7478 62.8009 92.7734Z" fill="black"/>
<path d="M89.2084 76.9526C92.5861 76.2344 95.9676 75.5162 99.3452 74.7941C99.4345 74.7746 99.5238 74.7513 99.6131 74.7397C100.013 74.6892 100.207 74.8135 100.32 75.1978C100.343 75.2755 100.359 75.3609 100.374 75.4385C101.818 82.2288 103.266 89.0229 104.711 95.8131C104.726 95.8946 104.746 95.9762 104.757 96.0577C104.812 96.4537 104.683 96.6478 104.299 96.7643C104.229 96.7876 104.155 96.7992 104.082 96.8148C97.2759 98.2629 90.4663 99.711 83.6605 101.159C83.579 101.175 83.4975 101.194 83.4159 101.206C83.0393 101.245 82.8569 101.128 82.7443 100.767C82.721 100.689 82.7016 100.608 82.6861 100.526C81.2379 93.7205 79.7898 86.9109 78.3378 80.1051C78.3223 80.0313 78.3068 79.9576 78.2951 79.8838C78.2408 79.4878 78.3689 79.2937 78.7532 79.1772C78.8386 79.1501 78.9318 79.1345 79.0211 79.1151C82.4143 78.3969 85.8113 77.6748 89.2084 76.9526ZM90.2411 96.8186C90.3537 96.741 90.4158 96.6323 90.4818 96.5275C92.3453 93.6468 94.2089 90.7661 96.0685 87.8892C96.1889 87.7029 96.3131 87.5126 96.4335 87.3263C96.6742 86.9536 96.6625 86.8953 96.2976 86.6585C94.4768 85.4822 92.6559 84.3058 90.839 83.1295C89.6005 82.3258 88.3659 81.5144 87.1275 80.7069C86.8208 80.5089 86.7509 80.5283 86.5529 80.835C86.0093 81.6813 85.4697 82.5277 84.9262 83.3702C84.6699 83.7662 84.6855 83.8399 85.0892 84.1039C87.011 85.3541 88.9328 86.6042 90.8545 87.8543C91.1573 88.0523 91.1845 88.1532 91.0098 88.4366C90.1596 89.8032 89.3093 91.1698 88.4591 92.5364C88.0437 93.2042 87.6244 93.8758 87.209 94.5436C87.0964 94.7222 87.0382 94.893 87.2672 95.0328C88.2106 95.6073 89.1541 96.1819 90.0975 96.7526C90.1363 96.7759 90.1906 96.7953 90.2411 96.8186ZM97.7457 95.2696C98.0796 95.1997 98.4096 95.1221 98.7435 95.0599C98.9454 95.0211 99.0036 94.9008 98.9648 94.7183C98.825 94.0622 98.6775 93.4061 98.5377 92.7499C98.495 92.5442 98.3824 92.4743 98.1805 92.5209C97.5244 92.6645 96.8683 92.8043 96.2083 92.9402C95.9948 92.9829 95.9404 93.111 95.9831 93.3012C96.119 93.9496 96.2588 94.5979 96.3985 95.2463C96.4412 95.4559 96.5538 95.5375 96.7751 95.4792C97.0935 95.4016 97.4196 95.3395 97.7457 95.2696Z" fill="#26CF7C"/>
<path d="M90.2413 96.8187C90.1908 96.7954 90.1326 96.776 90.086 96.7488C89.1426 96.1742 88.1991 95.5996 87.2557 95.0289C87.0267 94.8891 87.0849 94.7222 87.1975 94.5397C87.6168 93.872 88.0322 93.2003 88.4476 92.5325C89.2979 91.166 90.1481 89.7994 90.9983 88.4328C91.1769 88.1494 91.1497 88.0484 90.843 87.8504C88.9213 86.6003 86.9995 85.3502 85.0777 84.1001C84.674 83.8399 84.6584 83.7662 84.9147 83.3663C85.4582 82.5199 86.0017 81.6775 86.5414 80.8311C86.7394 80.5244 86.8093 80.505 87.116 80.703C88.3544 81.5105 89.589 82.322 90.8275 83.1256C92.6444 84.3058 94.4691 85.4783 96.2861 86.6547C96.651 86.8915 96.6627 86.9536 96.422 87.3224C96.3016 87.5088 96.1774 87.699 96.057 87.8854C94.1935 90.7661 92.3339 93.6468 90.4703 96.5236C90.416 96.6284 90.3538 96.741 90.2413 96.8187Z" fill="#FAFDFB"/>
<path d="M97.7458 95.2695C97.4197 95.3394 97.0935 95.3976 96.7713 95.4791C96.55 95.5335 96.4413 95.4559 96.3947 95.2462C96.2588 94.5979 96.1191 93.9495 95.9793 93.3011C95.9366 93.107 95.991 92.9828 96.2045 92.9401C96.8645 92.8042 97.5206 92.6644 98.1767 92.5208C98.3825 92.4742 98.4912 92.548 98.5339 92.7499C98.6737 93.406 98.8212 94.0621 98.961 94.7182C98.9998 94.9007 98.9454 95.021 98.7397 95.0599C98.4097 95.122 98.0758 95.1996 97.7458 95.2695Z" fill="#F2FAF6"/>
<path d="M92.1787 101.287C92.1787 101.287 93.7472 101.555 94.5042 101.05C94.5042 101.05 95.0944 101.05 95.2652 100.546C95.2652 100.546 95.9407 100.546 96.1931 99.9555C96.1931 99.9555 96.7832 99.8701 96.954 99.3654C96.954 99.3654 97.6295 99.1984 97.6295 98.7753C97.6295 98.7753 97.6295 96.6671 97.3772 96.244C97.1248 95.8208 96.2824 95.8208 96.1969 96.3294C96.1969 96.3294 95.436 96.1624 95.3545 96.9195C95.3545 96.9195 94.4266 96.7526 94.512 97.5096C94.512 97.5096 93.7549 97.3427 93.8365 98.0997L94.116 99.4896L92.1787 101.287Z" fill="#FAFBFD"/>
<path d="M93.0915 101.617C92.579 101.617 92.1675 101.547 92.1326 101.543L91.6162 101.454L93.8253 99.4002L93.5729 98.1307C93.5302 97.7463 93.6661 97.5328 93.7903 97.4241C93.934 97.296 94.1087 97.2533 94.2562 97.2416C94.2912 97.0669 94.3804 96.9466 94.4581 96.8728C94.6561 96.6865 94.9356 96.6476 95.1414 96.6476C95.2152 96.4302 95.3394 96.3021 95.4481 96.2245C95.6383 96.0886 95.8557 96.0575 96.0149 96.0575C96.1197 95.8751 96.31 95.7469 96.5546 95.7003C96.9079 95.6343 97.3776 95.7547 97.5912 96.1158C97.8668 96.5739 97.8823 98.4141 97.8823 98.7791C97.8823 99.2605 97.3893 99.4934 97.1408 99.5827C96.9506 99.9709 96.574 100.126 96.3682 100.184C96.1197 100.623 95.6849 100.755 95.4403 100.794C95.2152 101.206 94.7726 101.295 94.5862 101.31C94.1708 101.551 93.5846 101.617 93.0915 101.617ZM92.7693 101.089C93.2895 101.12 93.9767 101.089 94.361 100.833L94.427 100.79H94.5047C94.5202 100.79 94.9123 100.778 95.0171 100.46L95.0754 100.282H95.2617C95.2812 100.282 95.7703 100.27 95.9528 99.8467L96.011 99.7147L96.1547 99.6953C96.1586 99.6953 96.5895 99.6254 96.706 99.2799L96.7526 99.144L96.8923 99.1091C97.0593 99.0663 97.3699 98.9227 97.3699 98.7713C97.3699 97.7929 97.2883 96.5972 97.1524 96.3759C97.0748 96.2439 96.8496 96.1662 96.6555 96.2051C96.5701 96.2206 96.4653 96.2633 96.4497 96.372L96.4032 96.6399L96.1353 96.5816C96.0693 96.57 95.8752 96.5545 95.747 96.6438C95.6655 96.702 95.6189 96.8029 95.6034 96.9466L95.5723 97.2222L95.3006 97.1718C95.188 97.1524 94.9201 97.1446 94.8114 97.2455C94.7959 97.2611 94.7415 97.3115 94.7609 97.4785L94.7997 97.8395L94.4464 97.7619C94.3766 97.7463 94.2057 97.7386 94.1359 97.8046C94.0776 97.8589 94.0776 97.9832 94.0854 98.0608L94.3882 99.5827L92.7693 101.089Z" fill="black"/>
<rect x="0.759766" y="0.525391" width="239" height="239" rx="119.5" stroke="#E7E5E4"/>
</svg>
